<svg width="20" height="19" viewBox="0 0 20 19" fill="none" xmlns="http://www.w3.org/2000/svg">
<path d="M9.21545 0.927052C9.5148 0.00574112 10.8182 0.00573993 11.1176 0.927051L12.6362 5.60081C12.77 6.01284 13.154 6.2918 13.5872 6.2918H18.5015C19.4702 6.2918 19.873 7.53141 19.0893 8.10081L15.1135 10.9894C14.7631 11.244 14.6164 11.6954 14.7503 12.1074L16.2689 16.7812C16.5682 17.7025 15.5137 18.4686 14.73 17.8992L10.7543 15.0106C10.4038 14.756 9.92921 14.756 9.57872 15.0106L5.60298 17.8992C4.81927 18.4686 3.76479 17.7025 4.06414 16.7812L5.58273 12.1074C5.71661 11.6954 5.56995 11.244 5.21946 10.9894L1.24373 8.10081C0.460011 7.53141 0.862787 6.2918 1.83151 6.2918H6.74579C7.17902 6.2918 7.56298 6.01284 7.69685 5.60081L9.21545 0.927052Z" fill="white" fill-opacity="0.24"/>
</svg>