<?xml version="1.0" encoding="UTF-8"?>
<svg xmlns="http://www.w3.org/2000/svg" xmlns:xlink="http://www.w3.org/1999/xlink" style="width:0; height:0; visibility:hidden; position:absolute;">
  <symbol id="dial" viewBox="0 0 27 26">
    <path d="M5.87833 11.2858C7.91833 15.295 11.205 18.5675 15.2142 20.6217L18.3308 17.505C18.7133 17.1225 19.28 16.995 19.7758 17.165C21.3625 17.6892 23.0767 17.9725 24.8333 17.9725C25.6125 17.9725 26.25 18.61 26.25 19.3892V24.3333C26.25 25.1125 25.6125 25.75 24.8333 25.75C11.5308 25.75 0.75 14.9692 0.75 1.66667C0.75 0.8875 1.3875 0.25 2.16667 0.25H7.125C7.90417 0.25 8.54167 0.8875 8.54167 1.66667C8.54167 3.4375 8.825 5.1375 9.34917 6.72417C9.505 7.22 9.39167 7.7725 8.995 8.16917L5.87833 11.2858Z" fill="white"></path>
  </symbol>
  <symbol id="cta-arrow" viewBox="0 0 34 34">
    <g>
      <path d="M5.3125 17H28.6875" stroke="white" stroke-width="2" stroke-linecap="round" stroke-linejoin="round"></path>
      <path d="M19.125 7.4375L28.6875 17L19.125 26.5625" stroke="white" stroke-width="2" stroke-linecap="round" stroke-linejoin="round"></path>
    </g>
  </symbol>
  <symbol id="next-arrow" viewBox="0 0 80 80">
    <g clip-path="url(#clip0_1219_308)">
      <path opacity="0.12" d="M40 70C56.5685 70 70 56.5685 70 40C70 23.4315 56.5685 10 40 10C23.4315 10 10 23.4315 10 40C10 56.5685 23.4315 70 40 70Z" fill="white"></path>
      <path d="M40 70C56.5685 70 70 56.5685 70 40C70 23.4315 56.5685 10 40 10C23.4315 10 10 23.4315 10 40C10 56.5685 23.4315 70 40 70Z" stroke="white" stroke-width="2" stroke-linecap="round" stroke-linejoin="round"></path>
      <path d="M27.5 40H52.5" stroke="white" stroke-width="2" stroke-linecap="round" stroke-linejoin="round"></path>
      <path d="M42.5 30L52.5 40L42.5 50" stroke="white" stroke-width="2" stroke-linecap="round" stroke-linejoin="round"></path>
    </g>
    <clipPath id="clip0_1219_308">
      <rect width="80" height="80" fill="white"></rect>
    </clipPath>
  </symbol>
  <symbol id="star" viewBox="0 0 20 19">
    <path d="M9.04894 0.927052C9.3483 0.00574112 10.6517 0.00573993 10.9511 0.927051L12.4697 5.60081C12.6035 6.01284 12.9875 6.2918 13.4207 6.2918H18.335C19.3037 6.2918 19.7065 7.53141 18.9228 8.10081L14.947 10.9894C14.5966 11.244 14.4499 11.6954 14.5838 12.1074L16.1024 16.7812C16.4017 17.7025 15.3472 18.4686 14.5635 17.8992L10.5878 15.0106C10.2373 14.756 9.7627 14.756 9.41221 15.0106L5.43648 17.8992C4.65276 18.4686 3.59828 17.7025 3.89763 16.7812L5.41623 12.1074C5.55011 11.6954 5.40345 11.244 5.05296 10.9894L1.07722 8.10081C0.293507 7.53141 0.696283 6.2918 1.66501 6.2918H6.57929C7.01252 6.2918 7.39647 6.01284 7.53035 5.60081L9.04894 0.927052Z" fill="white"></path>
  </symbol>
  <symbol id="start-empty" viewBox="0 0 20 19">
    <path d="M9.21545 0.927052C9.5148 0.00574112 10.8182 0.00573993 11.1176 0.927051L12.6362 5.60081C12.77 6.01284 13.154 6.2918 13.5872 6.2918H18.5015C19.4702 6.2918 19.873 7.53141 19.0893 8.10081L15.1135 10.9894C14.7631 11.244 14.6164 11.6954 14.7503 12.1074L16.2689 16.7812C16.5682 17.7025 15.5137 18.4686 14.73 17.8992L10.7543 15.0106C10.4038 14.756 9.92921 14.756 9.57872 15.0106L5.60298 17.8992C4.81927 18.4686 3.76479 17.7025 4.06414 16.7812L5.58273 12.1074C5.71661 11.6954 5.56995 11.244 5.21946 10.9894L1.24373 8.10081C0.460011 7.53141 0.862787 6.2918 1.83151 6.2918H6.74579C7.17902 6.2918 7.56298 6.01284 7.69685 5.60081L9.21545 0.927052Z" fill="white" fill-opacity="0.24"></path>
  </symbol>
</svg>
